<svg xmlns="http://www.w3.org/2000/svg" xmlns:xlink="http://www.w3.org/1999/xlink" viewBox="0 0 88 20">
<g id="ss10395877834_1">
<path d="M 0 0 L 88 0 L 88 20 L 0 20 Z" fill="transparent"></path>
<path d="M 0.053 19.337 L 0.053 0.511 L 10.495 0.511 L 10.495 4.693 L 4.821 4.693 C 4.801 4.692 4.781 4.701 4.766 4.716 C 4.751 4.73 4.742 4.751 4.742 4.772 L 4.742 19.337 Z M 22.104 19.946 C 19.424 19.946 16.905 18.912 15.011 17.035 C 13.116 15.155 12.072 12.657 12.072 10.001 C 12.072 7.345 13.116 4.846 15.011 2.968 C 16.906 1.088 19.425 0.054 22.104 0.054 C 24.782 0.054 27.302 1.088 29.197 2.965 C 31.091 4.845 32.135 7.343 32.135 9.999 C 32.135 12.655 31.091 15.154 29.196 17.032 C 27.302 18.911 24.783 19.945 22.103 19.945 L 22.103 19.946 Z M 22.104 4.71 C 19.192 4.71 16.822 7.057 16.822 9.945 C 16.822 12.832 19.192 15.18 22.104 15.18 C 25.016 15.18 27.384 12.832 27.384 9.945 C 27.384 7.057 25.014 4.71 22.104 4.71 Z M 59.529 19.946 C 56.849 19.946 54.33 18.912 52.436 17.034 C 50.541 15.155 49.497 12.657 49.497 10.001 C 49.497 7.345 50.541 4.846 52.436 2.967 C 54.329 1.089 56.849 0.055 59.529 0.055 C 62.208 0.055 64.727 1.09 66.621 2.967 C 68.516 4.846 69.56 7.345 69.56 10.001 C 69.56 12.657 68.516 15.155 66.621 17.034 C 64.727 18.913 62.208 19.946 59.528 19.946 Z M 59.529 4.71 C 56.617 4.71 54.247 7.057 54.247 9.945 C 54.247 12.831 56.617 15.18 59.528 15.18 C 62.44 15.18 64.808 12.831 64.808 9.944 C 64.808 7.057 62.439 4.709 59.528 4.709 Z M 40.526 19.312 L 34.311 19.312 L 34.311 0.495 L 41.075 0.495 C 42.302 0.495 45.18 0.495 46.177 3.666 C 46.922 6.154 45.96 8.312 44.605 9.205 C 45.661 9.614 46.439 9.996 47.026 10.592 C 47.683 11.258 48.047 12.166 48.172 13.449 C 48.293 14.667 48.057 15.759 47.47 16.694 C 47.024 17.4 46.38 18.018 45.553 18.527 C 44.376 19.252 42.677 19.313 41.037 19.313 L 40.526 19.313 L 40.527 19.313 Z M 40.855 15.573 C 41.659 15.573 43.331 15.116 43.365 13.708 C 43.401 12.25 42.4 11.872 41.525 11.705 C 40.988 11.602 40.165 11.58 39.57 11.58 C 39.284 11.58 39.059 11.585 38.962 11.587 L 38.962 15.573 Z M 40.384 7.918 C 40.824 7.918 41.302 7.706 41.634 7.365 C 41.86 7.132 42.128 6.724 42.116 6.105 C 42.102 5.487 41.908 5.035 41.524 4.726 C 41.069 4.36 40.349 4.181 39.322 4.181 C 39.204 4.181 39.08 4.184 38.954 4.189 L 38.954 7.918 L 40.386 7.918 L 40.385 7.918 Z M 83.312 19.282 L 83.312 11.595 C 83.312 11.534 83.263 11.485 83.203 11.485 L 76.466 11.485 C 76.437 11.484 76.409 11.496 76.388 11.517 C 76.368 11.537 76.356 11.566 76.356 11.595 L 76.356 19.281 L 71.723 19.281 L 71.723 0.485 L 76.356 0.485 L 76.356 7.66 C 76.356 7.721 76.404 7.771 76.466 7.771 L 83.203 7.771 C 83.263 7.771 83.312 7.721 83.312 7.66 L 83.312 0.485 L 87.946 0.485 L 87.946 19.28 L 83.312 19.28 L 83.312 19.281 Z" fill="#09352b"></path>
<path d="M 8.32 12.475 C 8.983 12.474 9.619 12.203 10.087 11.722 C 10.555 11.242 10.817 10.59 10.816 9.912 C 10.818 8.5 9.702 7.353 8.321 7.349 C 7.657 7.35 7.022 7.621 6.553 8.102 C 6.085 8.583 5.823 9.234 5.825 9.913 C 5.823 10.591 6.085 11.243 6.553 11.724 C 7.022 12.204 7.657 12.475 8.321 12.476 Z" fill="#087058"></path>
</g>
</svg>